<svg width="40" height="40" viewBox="0 0 40 40" fill="none" xmlns="http://www.w3.org/2000/svg">
<rect width="40" height="40" rx="4" fill="white"/>
<path d="M24.7597 27.2001C26.3509 26.6974 27.7104 25.912 28.7686 24.5218C22.9677 27.9306 17.2362 27.8206 11.5203 24.5924C11.5975 24.8281 11.8756 25.1737 12.509 25.6764C12.9184 25.9984 13.3586 26.289 13.8144 26.5325C14.2624 26.776 14.7413 26.9488 15.2279 27.1687C15.1893 27.2316 15.1507 27.3022 15.0966 27.3729C14.7181 27.8521 14.3396 28.339 13.9457 28.8103C13.8607 28.9046 13.7062 28.9988 13.5904 28.991C12.3622 28.9203 11.1649 28.6768 10.0449 28.1348C8.97124 27.6243 8.05205 26.9174 7.29507 25.9827C7.08651 25.7235 6.9861 25.4486 7.00155 25.0951C7.11741 21.8591 7.71218 18.7173 8.82448 15.6697C9.20297 14.633 9.66643 13.6354 10.099 12.6222C10.1608 12.4808 10.2767 12.3316 10.4002 12.2452C11.8679 11.177 13.4822 10.4387 15.2665 10.1245C15.5755 10.0695 15.8999 10.0538 16.2089 10.0067C16.4097 9.97525 16.5411 10.0538 16.626 10.2659C14.5636 10.9099 12.6017 11.7504 10.8791 13.172C16.8037 10.2894 22.6973 10.1638 28.5987 13.0935C27.0229 11.8053 25.2 10.9963 23.2921 10.3601C23.4311 10.0459 23.6474 10.0067 23.9564 10.0381C26.0265 10.2344 27.8649 11.012 29.5565 12.2138C29.711 12.3237 29.85 12.4808 29.9273 12.6458C31.2327 15.3399 32.121 18.1675 32.6153 21.1286C32.8471 22.511 32.9706 23.9091 32.9938 25.3072C32.9938 25.4879 32.932 25.6999 32.8239 25.8413C31.727 27.3101 30.2517 28.2134 28.5137 28.6689C27.8417 28.8496 27.1311 28.9046 26.4359 28.9988C26.3355 29.0145 26.1733 28.9674 26.1115 28.8888C25.6635 28.3469 25.2309 27.7892 24.7597 27.2001ZM15.8613 23.485C16.3557 23.485 16.8191 23.3122 17.1899 22.998C17.8387 22.456 18.055 21.7413 18.1477 20.9165C18.3485 19.1728 16.402 17.9161 14.9267 18.6309C13.8762 19.1414 13.32 20.4374 13.6522 21.6627C13.9534 22.7624 14.834 23.4928 15.8613 23.485ZM23.9796 23.5164C24.2422 23.4535 24.5125 23.43 24.7597 23.3279C26.3432 22.6917 26.7835 20.4531 25.5862 19.1414C24.7288 18.1989 23.2998 18.1832 22.4193 19.11C21.809 19.7462 21.6314 20.5238 21.7318 21.3878C21.8477 22.5346 22.8595 23.4771 23.9796 23.5164Z" fill="#E9ABE1"/>
</svg>
