<svg width="1260" height="810" viewBox="0 0 1260 810" fill="none" xmlns="http://www.w3.org/2000/svg">
    <rect x="3" y="440" width="9" height="9" fill="#E9ABE1"/>
    <rect x="3" y="394" width="5" height="4" fill="#E9ABE1"/>
    <rect x="77" y="394" width="5" height="4" fill="#E9ABE1"/>
    <rect x="151" y="394" width="5" height="4" fill="#E9ABE1"/>
    <rect x="157" y="527" width="9" height="8" fill="#E9ABE1"/>
    <rect x="156" y="571" width="2" height="2" fill="#E9ABE1"/>
    <rect x="78" y="572" width="2" height="2" fill="#E9ABE1"/>
    <rect x="78" y="615" width="12" height="2" fill="#E9ABE1"/>
    <rect y="306" width="12" height="2" fill="#E9ABE1"/>
    <rect y="262" width="12" height="2" fill="#E9ABE1"/>
    <rect y="218" width="3" height="2" fill="#E9ABE1"/>
    <rect x="1" y="179" width="3" height="2" fill="#E9ABE1"/>
    <rect x="1" y="174" width="3" height="2" fill="#E9ABE1"/>
    <rect x="12" y="174" width="3" height="2" fill="#E9ABE1"/>
    <rect x="12" y="179" width="3" height="2" fill="#E9ABE1"/>
    <rect width="3" height="2" transform="matrix(-1 0 0 1 1257 182)" fill="#E9ABE1"/>
    <rect width="3" height="2" transform="matrix(-1 0 0 1 1022 182)" fill="#E9ABE1"/>
    <rect width="3" height="2" transform="matrix(-1 0 0 1 1247 182)" fill="#E9ABE1"/>
    <rect width="3" height="2" transform="matrix(-1 0 0 1 1012 182)" fill="#E9ABE1"/>
    <rect width="3" height="2" transform="matrix(-1 0 0 1 1257 187)" fill="#E9ABE1"/>
    <rect width="3" height="2" transform="matrix(-1 0 0 1 1022 187)" fill="#E9ABE1"/>
    <rect width="3" height="2" transform="matrix(-1 0 0 1 1247 187)" fill="#E9ABE1"/>
    <rect width="3" height="2" transform="matrix(-1 0 0 1 1012 187)" fill="#E9ABE1"/>
    <rect width="3" height="2" transform="matrix(-1 0 0 1 1258 227)" fill="#E9ABE1"/>
    <rect width="3" height="2" transform="matrix(-1 0 0 1 1179 226)" fill="#E9ABE1"/>
    <rect width="7" height="7" transform="matrix(-1 0 0 1 865 447)" fill="#E9ABE1"/>
    <rect x="865" y="464" width="3" height="1" transform="rotate(180 865 464)" fill="#E9ABE1"/>
    <rect x="865" y="468" width="3" height="1" transform="rotate(180 865 468)" fill="#E9ABE1"/>
    <rect width="3" height="2" transform="matrix(-1 0 0 1 1180 182)" fill="#E9ABE1"/>
    <rect width="3" height="2" transform="matrix(-1 0 0 1 944 579)" fill="#E9ABE1"/>
    <rect width="3" height="2" transform="matrix(-1 0 0 1 790 580)" fill="#E9ABE1"/>
    <rect width="3" height="2" transform="matrix(-1 0 0 1 1103 182)" fill="#E9ABE1"/>
    <rect width="3" height="2" transform="matrix(-1 0 0 1 867 579)" fill="#E9ABE1"/>
    <rect width="3" height="2" transform="matrix(-1 0 0 1 713 580)" fill="#E9ABE1"/>
    <rect width="3" height="2" transform="matrix(-1 0 0 1 1102 227)" fill="#E9ABE1"/>
    <rect width="79" height="2" transform="matrix(-1 0 0 1 1256 126)" fill="#E9ABE1"/>
    <rect width="9" height="2" transform="matrix(-1 0 0 1 1259 270)" fill="#E9ABE1"/>
    <rect width="9" height="2" transform="matrix(-1 0 0 1 1260 315)" fill="#E9ABE1"/>
    <rect width="3" height="2" transform="matrix(1 0 0 -1 210 261)" fill="#E9ABE1"/>
    <rect width="3" height="2" transform="matrix(1 0 0 -1 445 261)" fill="#E9ABE1"/>
    <rect width="3" height="2" transform="matrix(1 0 0 -1 220 261)" fill="#E9ABE1"/>
    <rect width="3" height="2" transform="matrix(1 0 0 -1 455 261)" fill="#E9ABE1"/>
    <rect width="3" height="2" transform="matrix(1 0 0 -1 210 256)" fill="#E9ABE1"/>
    <rect width="3" height="2" transform="matrix(1 0 0 -1 445 256)" fill="#E9ABE1"/>
    <rect width="3" height="2" transform="matrix(1 0 0 -1 220 256)" fill="#E9ABE1"/>
    <rect width="3" height="2" transform="matrix(1 0 0 -1 455 256)" fill="#E9ABE1"/>
    <rect width="3" height="2" transform="matrix(1 0 0 -1 209 216)" fill="#E9ABE1"/>
    <rect width="3" height="2" transform="matrix(1 0 0 -1 288 217)" fill="#E9ABE1"/>
    <rect width="3" height="2" transform="matrix(1 0 0 -1 287 261)" fill="#E9ABE1"/>
    <rect width="3" height="2" transform="matrix(1 0 0 -1 364 261)" fill="#E9ABE1"/>
    <rect width="3" height="2" transform="matrix(1 0 0 -1 365 216)" fill="#E9ABE1"/>
    <rect width="9" height="2" transform="matrix(1 0 0 -1 208 173)" fill="#E9ABE1"/>
    <rect width="9" height="2" transform="matrix(1 0 0 -1 207 128)" fill="#E9ABE1"/>
    <rect x="1209" y="745" width="3" height="2" transform="rotate(180 1209 745)" fill="#E9ABE1"/>
    <rect x="974" y="745" width="3" height="2" transform="rotate(180 974 745)" fill="#E9ABE1"/>
    <rect x="1199" y="745" width="3" height="2" transform="rotate(180 1199 745)" fill="#E9ABE1"/>
    <rect x="964" y="745" width="3" height="2" transform="rotate(180 964 745)" fill="#E9ABE1"/>
    <rect x="1209" y="740" width="3" height="2" transform="rotate(180 1209 740)" fill="#E9ABE1"/>
    <rect x="974" y="740" width="3" height="2" transform="rotate(180 974 740)" fill="#E9ABE1"/>
    <rect x="1199" y="740" width="3" height="2" transform="rotate(180 1199 740)" fill="#E9ABE1"/>
    <rect x="964" y="740" width="3" height="2" transform="rotate(180 964 740)" fill="#E9ABE1"/>
    <rect x="1210" y="700" width="3" height="2" transform="rotate(180 1210 700)" fill="#E9ABE1"/>
    <rect x="1131" y="701" width="3" height="2" transform="rotate(180 1131 701)" fill="#E9ABE1"/>
    <rect x="817" y="480" width="7" height="7" transform="rotate(180 817 480)" fill="#E9ABE1"/>
    <rect width="3" height="1" transform="matrix(-1 0 0 1 817 463)" fill="#E9ABE1"/>
    <rect width="3" height="1" transform="matrix(-1 0 0 1 817 459)" fill="#E9ABE1"/>
    <rect x="1132" y="745" width="3" height="2" transform="rotate(180 1132 745)" fill="#E9ABE1"/>
    <rect x="896" y="348" width="3" height="2" transform="rotate(180 896 348)" fill="#E9ABE1"/>
    <rect x="742" y="347" width="3" height="2" transform="rotate(180 742 347)" fill="#E9ABE1"/>
    <rect x="1055" y="745" width="3" height="2" transform="rotate(180 1055 745)" fill="#E9ABE1"/>
    <rect x="819" y="348" width="3" height="2" transform="rotate(180 819 348)" fill="#E9ABE1"/>
    <rect x="665" y="347" width="3" height="2" transform="rotate(180 665 347)" fill="#E9ABE1"/>
    <rect x="1054" y="700" width="3" height="2" transform="rotate(180 1054 700)" fill="#E9ABE1"/>
    <rect x="1208" y="801" width="79" height="2" transform="rotate(180 1208 801)" fill="#E9ABE1"/>
    <rect x="1211" y="657" width="9" height="2" transform="rotate(180 1211 657)" fill="#E9ABE1"/>
    <rect x="1212" y="612" width="9" height="2" transform="rotate(180 1212 612)" fill="#E9ABE1"/>
</svg>
