<svg width="1260" height="810" viewBox="0 0 1260 810" fill="none" xmlns="http://www.w3.org/2000/svg">
<rect width="9" height="9" transform="matrix(1 0 0 -1 3 339)" fill="#E9ABE1"/>
<rect width="5" height="4" transform="matrix(1 0 0 -1 3 385)" fill="#E9ABE1"/>
<rect width="5" height="4" transform="matrix(1 0 0 -1 77 385)" fill="#E9ABE1"/>
<rect width="5" height="4" transform="matrix(1 0 0 -1 151 385)" fill="#E9ABE1"/>
<rect width="9" height="8" transform="matrix(1 0 0 -1 157 252)" fill="#E9ABE1"/>
<rect width="2" height="2" transform="matrix(1 0 0 -1 156 208)" fill="#E9ABE1"/>
<rect width="2" height="2" transform="matrix(1 0 0 -1 78 207)" fill="#E9ABE1"/>
<rect width="12" height="2" transform="matrix(1 0 0 -1 78 164)" fill="#E9ABE1"/>
<rect width="12" height="2" transform="matrix(1 0 0 -1 0 473)" fill="#E9ABE1"/>
<rect width="12" height="2" transform="matrix(1 0 0 -1 0 517)" fill="#E9ABE1"/>
<rect width="3" height="2" transform="matrix(1 0 0 -1 0 561)" fill="#E9ABE1"/>
<rect width="3" height="2" transform="matrix(1 0 0 -1 1 600)" fill="#E9ABE1"/>
<rect width="3" height="2" transform="matrix(1 0 0 -1 1 605)" fill="#E9ABE1"/>
<rect width="3" height="2" transform="matrix(1 0 0 -1 12 605)" fill="#E9ABE1"/>
<rect width="3" height="2" transform="matrix(1 0 0 -1 12 600)" fill="#E9ABE1"/>
<rect x="1257" y="597" width="3" height="2" transform="rotate(-180 1257 597)" fill="#E9ABE1"/>
<rect x="1022" y="597" width="3" height="2" transform="rotate(-180 1022 597)" fill="#E9ABE1"/>
<rect x="1247" y="597" width="3" height="2" transform="rotate(-180 1247 597)" fill="#E9ABE1"/>
<rect x="1012" y="597" width="3" height="2" transform="rotate(-180 1012 597)" fill="#E9ABE1"/>
<rect x="1257" y="592" width="3" height="2" transform="rotate(-180 1257 592)" fill="#E9ABE1"/>
<rect x="1022" y="592" width="3" height="2" transform="rotate(-180 1022 592)" fill="#E9ABE1"/>
<rect x="1247" y="592" width="3" height="2" transform="rotate(-180 1247 592)" fill="#E9ABE1"/>
<rect x="1012" y="592" width="3" height="2" transform="rotate(-180 1012 592)" fill="#E9ABE1"/>
<rect x="1258" y="552" width="3" height="2" transform="rotate(-180 1258 552)" fill="#E9ABE1"/>
<rect x="1179" y="553" width="3" height="2" transform="rotate(-180 1179 553)" fill="#E9ABE1"/>
<rect x="865" y="332" width="7" height="7" transform="rotate(-180 865 332)" fill="#E9ABE1"/>
<rect width="3" height="1" transform="matrix(-1 0 0 1 865 315)" fill="#E9ABE1"/>
<rect width="3" height="1" transform="matrix(-1 0 0 1 865 311)" fill="#E9ABE1"/>
<rect x="1180" y="597" width="3" height="2" transform="rotate(-180 1180 597)" fill="#E9ABE1"/>
<rect x="944" y="200" width="3" height="2" transform="rotate(-180 944 200)" fill="#E9ABE1"/>
<rect x="790" y="199" width="3" height="2" transform="rotate(-180 790 199)" fill="#E9ABE1"/>
<rect x="1103" y="597" width="3" height="2" transform="rotate(-180 1103 597)" fill="#E9ABE1"/>
<rect x="867" y="200" width="3" height="2" transform="rotate(-180 867 200)" fill="#E9ABE1"/>
<rect x="713" y="199" width="3" height="2" transform="rotate(-180 713 199)" fill="#E9ABE1"/>
<rect x="1102" y="552" width="3" height="2" transform="rotate(-180 1102 552)" fill="#E9ABE1"/>
<rect x="1256" y="653" width="79" height="2" transform="rotate(-180 1256 653)" fill="#E9ABE1"/>
<rect x="1259" y="509" width="9" height="2" transform="rotate(-180 1259 509)" fill="#E9ABE1"/>
<rect x="1260" y="464" width="9" height="2" transform="rotate(-180 1260 464)" fill="#E9ABE1"/>
<rect x="210" y="518" width="3" height="2" fill="#E9ABE1"/>
<rect x="445" y="518" width="3" height="2" fill="#E9ABE1"/>
<rect x="220" y="518" width="3" height="2" fill="#E9ABE1"/>
<rect x="455" y="518" width="3" height="2" fill="#E9ABE1"/>
<rect x="210" y="523" width="3" height="2" fill="#E9ABE1"/>
<rect x="445" y="523" width="3" height="2" fill="#E9ABE1"/>
<rect x="220" y="523" width="3" height="2" fill="#E9ABE1"/>
<rect x="455" y="523" width="3" height="2" fill="#E9ABE1"/>
<rect x="209" y="563" width="3" height="2" fill="#E9ABE1"/>
<rect x="288" y="562" width="3" height="2" fill="#E9ABE1"/>
<rect x="602" y="783" width="7" height="7" fill="#E9ABE1"/>
<rect width="3" height="1" transform="matrix(1 0 0 -1 602 800)" fill="#E9ABE1"/>
<rect width="3" height="1" transform="matrix(1 0 0 -1 602 804)" fill="#E9ABE1"/>
<rect x="287" y="518" width="3" height="2" fill="#E9ABE1"/>
<rect x="364" y="518" width="3" height="2" fill="#E9ABE1"/>
<rect x="365" y="563" width="3" height="2" fill="#E9ABE1"/>
<rect x="208" y="606" width="9" height="2" fill="#E9ABE1"/>
<rect x="207" y="651" width="9" height="2" fill="#E9ABE1"/>
<rect width="3" height="2" transform="matrix(-1 0 0 1 1209 34)" fill="#E9ABE1"/>
<rect width="3" height="2" transform="matrix(-1 0 0 1 974 34)" fill="#E9ABE1"/>
<rect width="3" height="2" transform="matrix(-1 0 0 1 1199 34)" fill="#E9ABE1"/>
<rect width="3" height="2" transform="matrix(-1 0 0 1 964 34)" fill="#E9ABE1"/>
<rect width="3" height="2" transform="matrix(-1 0 0 1 1209 39)" fill="#E9ABE1"/>
<rect width="3" height="2" transform="matrix(-1 0 0 1 974 39)" fill="#E9ABE1"/>
<rect width="3" height="2" transform="matrix(-1 0 0 1 1199 39)" fill="#E9ABE1"/>
<rect width="3" height="2" transform="matrix(-1 0 0 1 964 39)" fill="#E9ABE1"/>
<rect width="3" height="2" transform="matrix(-1 0 0 1 1210 79)" fill="#E9ABE1"/>
<rect width="3" height="2" transform="matrix(-1 0 0 1 1131 78)" fill="#E9ABE1"/>
<rect width="7" height="7" transform="matrix(-1 0 0 1 817 299)" fill="#E9ABE1"/>
<rect x="817" y="316" width="3" height="1" transform="rotate(180 817 316)" fill="#E9ABE1"/>
<rect x="817" y="320" width="3" height="1" transform="rotate(180 817 320)" fill="#E9ABE1"/>
<rect width="3" height="2" transform="matrix(-1 0 0 1 1132 34)" fill="#E9ABE1"/>
<rect width="3" height="2" transform="matrix(-1 0 0 1 896 431)" fill="#E9ABE1"/>
<rect width="3" height="2" transform="matrix(-1 0 0 1 742 432)" fill="#E9ABE1"/>
<rect width="3" height="2" transform="matrix(-1 0 0 1 1055 34)" fill="#E9ABE1"/>
<rect width="3" height="2" transform="matrix(-1 0 0 1 819 431)" fill="#E9ABE1"/>
<rect width="3" height="2" transform="matrix(-1 0 0 1 665 432)" fill="#E9ABE1"/>
<rect width="3" height="2" transform="matrix(-1 0 0 1 1054 79)" fill="#E9ABE1"/>
<rect width="9" height="2" transform="matrix(-1 0 0 1 1211 122)" fill="#E9ABE1"/>
<rect width="9" height="2" transform="matrix(-1 0 0 1 1212 167)" fill="#E9ABE1"/>
</svg>
