<svg width="1440" height="810" viewBox="0 0 1440 810" fill="none" xmlns="http://www.w3.org/2000/svg">
    <rect x="55" y="441" class="st0" width="9" height="9" fill="#E9ABE1"/>
    <rect x="55" y="395" class="st0" width="5" height="4" fill="#E9ABE1"/>
    <rect x="232.6" y="614" class="st0" width="9" height="8" fill="#E9ABE1"/>
    <rect x="231.6" y="658" class="st0" width="2" height="2" fill="#E9ABE1"/>
    <rect x="153.6" y="659" class="st0" width="2" height="2" fill="#E9ABE1"/>
    <rect x="153.6" y="702" class="st0" width="12" height="2" fill="#E9ABE1"/>
    <rect x="52" y="307" class="st0" width="12" height="2" fill="#E9ABE1"/>
    <rect x="52" y="263" class="st0" width="12" height="2" fill="#E9ABE1"/>
    <rect x="52" y="219" class="st0" width="3" height="2" fill="#E9ABE1"/>
    <rect x="53" y="180" class="st0" width="3" height="2" fill="#E9ABE1"/>
    <rect x="53" y="175" class="st0" width="3" height="2" fill="#E9ABE1"/>
    <rect x="64" y="175" class="st0" width="3" height="2" fill="#E9ABE1"/>
    <rect x="64" y="180" class="st0" width="3" height="2" fill="#E9ABE1"/>
    <rect x="1330" y="183" class="st0" width="3" height="2" fill="#E9ABE1"/>
    <rect x="1094.6" y="128" class="st0" width="3" height="2" fill="#E9ABE1"/>
    <rect x="1320" y="183" class="st0" width="3" height="2" fill="#E9ABE1"/>
    <rect x="1084.6" y="128" class="st0" width="3" height="2" fill="#E9ABE1"/>
    <rect x="1330" y="188" class="st0" width="3" height="2" fill="#E9ABE1"/>
    <rect x="1094.6" y="133" class="st0" width="3" height="2" fill="#E9ABE1"/>
    <rect x="1320" y="188" class="st0" width="3" height="2" fill="#E9ABE1"/>
    <rect x="1084.6" y="133" class="st0" width="3" height="2" fill="#E9ABE1"/>
    <rect x="1331" y="228" class="st0" width="3" height="2" fill="#E9ABE1"/>
    <rect x="883.9" y="448" class="st0" width="7" height="7" fill="#E9ABE1"/>
    <rect x="887.9" y="464" class="st0" width="3" height="1" fill="#E9ABE1"/>
    <rect x="887.9" y="468" class="st0" width="3" height="1" fill="#E9ABE1"/>
    <rect x="905" y="580" class="st0" width="3" height="2" fill="#E9ABE1"/>
    <rect x="751" y="581" class="st0" width="3" height="2" fill="#E9ABE1"/>
    <rect x="1175.6" y="128" class="st0" width="3" height="2" fill="#E9ABE1"/>
    <rect x="828" y="580" class="st0" width="3" height="2" fill="#E9ABE1"/>
    <rect x="674" y="581" class="st0" width="3" height="2" fill="#E9ABE1"/>
    <rect x="1326" y="271" class="st0" width="9" height="2" fill="#E9ABE1"/>
    <rect x="1326.5" y="316" class="st0" width="9" height="2" fill="#E9ABE1"/>
    <rect x="373" y="179" class="st0" width="3" height="2" fill="#E9ABE1"/>
    <rect x="608" y="179" class="st0" width="3" height="2" fill="#E9ABE1"/>
    <rect x="383" y="179" class="st0" width="3" height="2" fill="#E9ABE1"/>
    <rect x="618" y="179" class="st0" width="3" height="2" fill="#E9ABE1"/>
    <rect x="373" y="174" class="st0" width="3" height="2" fill="#E9ABE1"/>
    <rect x="608" y="174" class="st0" width="3" height="2" fill="#E9ABE1"/>
    <rect x="383" y="174" class="st0" width="3" height="2" fill="#E9ABE1"/>
    <rect x="618" y="174" class="st0" width="3" height="2" fill="#E9ABE1"/>
    <rect x="372" y="134" class="st0" width="3" height="2" fill="#E9ABE1"/>
    <rect x="451" y="135" class="st0" width="3" height="2" fill="#E9ABE1"/>
    <rect x="450" y="179" class="st0" width="3" height="2" fill="#E9ABE1"/>
    <rect x="527" y="179" class="st0" width="3" height="2" fill="#E9ABE1"/>
    <rect x="528" y="134" class="st0" width="3" height="2" fill="#E9ABE1"/>
    <rect x="123.5" y="172" class="st0" width="9" height="2" fill="#E9ABE1"/>
    <rect x="122.5" y="127" class="st0" width="9" height="2" fill="#E9ABE1"/>
    <rect x="1281.7" y="744" class="st0" width="3" height="2" fill="#E9ABE1"/>
    <rect x="1271.7" y="744" class="st0" width="3" height="2" fill="#E9ABE1"/>
    <rect x="1281.7" y="739" class="st0" width="3" height="2" fill="#E9ABE1"/>
    <rect x="1271.7" y="739" class="st0" width="3" height="2" fill="#E9ABE1"/>
    <rect x="1282.7" y="699" class="st0" width="3" height="2" fill="#E9ABE1"/>
    <rect x="1203.7" y="700" class="st0" width="3" height="2" fill="#E9ABE1"/>
    <rect x="835.9" y="474" class="st0" width="7" height="7" fill="#E9ABE1"/>
    <rect x="839.9" y="464" class="st0" width="3" height="1" fill="#E9ABE1"/>
    <rect x="839.9" y="460" class="st0" width="3" height="1" fill="#E9ABE1"/>
    <rect x="523.7" y="474" class="st0" width="7" height="7" fill="#E9ABE1"/>
    <rect x="527.7" y="464" class="st0" width="3" height="1" fill="#E9ABE1"/>
    <rect x="527.7" y="460" class="st0" width="3" height="1" fill="#E9ABE1"/>
    <rect x="475.7" y="448" class="st0" width="7" height="7" fill="#E9ABE1"/>
    <rect x="479.7" y="464" class="st0" width="3" height="1" fill="#E9ABE1"/>
    <rect x="479.7" y="468" class="st0" width="3" height="1" fill="#E9ABE1"/>
    <rect x="1204.7" y="744" class="st0" width="3" height="2" fill="#E9ABE1"/>
    <rect x="810.6" y="347" class="st0" width="3" height="2" fill="#E9ABE1"/>
    <rect x="1127.7" y="744" class="st0" width="3" height="2" fill="#E9ABE1"/>
    <rect x="887.6" y="347" class="st0" width="3" height="2" fill="#E9ABE1"/>
    <rect x="450.7" y="347" class="st0" width="3" height="2" fill="#E9ABE1"/>
    <rect x="527.7" y="347" class="st0" width="3" height="2" fill="#E9ABE1"/>
    <rect x="1126.7" y="699" class="st0" width="3" height="2" fill="#E9ABE1"/>
    <rect x="1277.7" y="656" class="st0" width="9" height="2" fill="#E9ABE1"/>
    <rect x="1278.7" y="611" class="st0" width="9" height="2" fill="#E9ABE1"/>
</svg>
