<svg width="40" height="41" viewBox="0 0 40 41" fill="none" xmlns="http://www.w3.org/2000/svg">
<rect y="0.0727539" width="40" height="40" rx="4" fill="#E9ABE1"/>
<path d="M24.7597 27.2729C26.3509 26.7702 27.7104 25.9848 28.7686 24.5945C22.9677 28.0034 17.2362 27.8934 11.5203 24.6652C11.5975 24.9008 11.8756 25.2464 12.509 25.7491C12.9184 26.0712 13.3586 26.3618 13.8144 26.6053C14.2624 26.8487 14.7413 27.0215 15.2279 27.2415C15.1893 27.3043 15.1507 27.375 15.0966 27.4457C14.7181 27.9248 14.3396 28.4118 13.9457 28.8831C13.8607 28.9773 13.7062 29.0716 13.5904 29.0637C12.3622 28.993 11.1649 28.7495 10.0449 28.2076C8.97124 27.697 8.05205 26.9901 7.29507 26.0554C7.08651 25.7962 6.9861 25.5213 7.00155 25.1679C7.11741 21.9318 7.71218 18.79 8.82448 15.7425C9.20297 14.7057 9.66643 13.7082 10.099 12.695C10.1608 12.5536 10.2767 12.4043 10.4002 12.3179C11.8679 11.2497 13.4822 10.5114 15.2665 10.1972C15.5755 10.1423 15.8999 10.1265 16.2089 10.0794C16.4097 10.048 16.5411 10.1265 16.626 10.3386C14.5636 10.9827 12.6017 11.8231 10.8791 13.2448C16.8037 10.3622 22.6973 10.2365 28.5987 13.1662C27.0229 11.8781 25.2 11.0691 23.2921 10.4329C23.4311 10.1187 23.6474 10.0794 23.9564 10.1108C26.0265 10.3072 27.8649 11.0848 29.5565 12.2865C29.711 12.3965 29.85 12.5536 29.9273 12.7185C31.2327 15.4126 32.121 18.2402 32.6153 21.2014C32.8471 22.5838 32.9706 23.9819 32.9938 25.38C32.9938 25.5606 32.932 25.7727 32.8239 25.9141C31.727 27.3829 30.2517 28.2861 28.5137 28.7417C27.8417 28.9223 27.1311 28.9773 26.4359 29.0716C26.3355 29.0873 26.1733 29.0401 26.1115 28.9616C25.6635 28.4196 25.2309 27.862 24.7597 27.2729ZM15.8613 23.5577C16.3557 23.5577 16.8191 23.3849 17.1899 23.0707C17.8387 22.5288 18.055 21.814 18.1477 20.9893C18.3485 19.2456 16.402 17.9889 14.9267 18.7036C13.8762 19.2142 13.32 20.5102 13.6522 21.7355C13.9534 22.8351 14.834 23.5656 15.8613 23.5577ZM23.9796 23.5891C24.2422 23.5263 24.5125 23.5027 24.7597 23.4006C26.3432 22.7644 26.7835 20.5259 25.5862 19.2142C24.7288 18.2716 23.2998 18.2559 22.4193 19.1828C21.809 19.819 21.6314 20.5966 21.7318 21.4606C21.8477 22.6073 22.8595 23.5499 23.9796 23.5891Z" fill="white"/>
</svg>
