<svg width="80" height="80" viewBox="0 0 80 80" fill="none" xmlns="http://www.w3.org/2000/svg">
<path d="M68.2303 47.4727C67.6041 47.216 66.982 47.2197 66.3552 47.4873C65.7284 47.755 65.2866 48.2019 65.03 48.8281L64.3457 50.498C64.089 51.1242 64.0901 51.7526 64.3514 52.3769C64.6165 53.01 65.0634 53.4517 65.6896 53.7084C68.574 54.8904 70.4378 49.8918 72.2342 50.628C72.5062 50.7394 72.695 50.9276 72.8133 51.1978C72.9291 51.4742 72.9306 51.7408 72.8217 52.0065L72.1322 53.689C72.0233 53.9547 71.8351 54.1435 71.5613 54.2529C71.2912 54.3713 71.0246 54.3728 70.7589 54.2639L70.2301 55.5543C70.8563 55.8109 71.4784 55.8073 72.0963 55.5434C72.7179 55.2884 73.1596 54.8415 73.4163 54.2152L74.1058 52.5327C74.3624 51.9065 74.3614 51.2781 74.1001 50.6539C73.8387 50.0296 73.3918 49.5879 72.7656 49.3313C69.8812 48.1492 68.02 53.1415 66.2236 52.4053C65.9516 52.2939 65.7565 52.1031 65.6445 51.8355C65.5325 51.568 65.5309 51.3014 65.6424 51.0294L66.3267 49.3595C66.4382 49.0875 66.6264 48.8987 66.8965 48.7804C67.1666 48.6621 67.4332 48.6605 67.6989 48.7694L68.2303 47.4727Z" fill="white"/>
<path d="M65.0377 55.0076C64.5068 54.5878 63.9027 54.4151 63.2305 54.4937C62.5595 54.5819 62.0114 54.8893 61.5874 55.4255L60.4681 56.8412C60.0484 57.3721 59.8757 57.9762 59.9585 58.643C60.0425 59.3194 60.3499 59.8675 60.8807 60.2872L61.7457 59.1933C61.5151 59.011 61.3856 58.7779 61.3508 58.4803C61.3172 58.1922 61.3894 57.9356 61.5674 57.7103L62.6867 56.2947C62.869 56.0641 63.1021 55.9347 63.3944 55.8956C63.6867 55.8566 63.9433 55.9288 64.1686 56.1069L68.0241 59.1552C68.2493 59.3333 68.3787 59.5664 68.407 59.8502C68.4365 60.1436 68.36 60.4056 68.1777 60.6362L67.0584 62.0519C66.8804 62.2771 66.6473 62.4065 66.3592 62.4402C66.0669 62.4792 65.8103 62.407 65.5797 62.2247L64.7148 63.3186C65.2457 63.7384 65.8499 63.9111 66.522 63.8325C67.1899 63.7593 67.738 63.4519 68.1577 62.921L69.277 61.5054C69.701 60.9691 69.8737 60.3649 69.8047 59.6917C69.7315 59.0238 69.4241 58.4757 68.8932 58.056L65.0377 55.0076Z" fill="white"/>
<path d="M57.3008 60.2071L59.745 63.6193L54.4333 62.2612L53.0217 63.2723L58.3446 64.6225L57.4109 65.2912C56.8608 65.6853 56.5277 66.2182 56.4229 66.8819C56.3125 67.5495 56.4564 68.1612 56.8505 68.7114L57.2565 69.2783C57.6506 69.8284 58.1835 70.1615 58.8512 70.2718C59.5133 70.3862 60.125 70.2423 60.6751 69.8482L64.1485 67.3603L58.4401 59.3911L57.3008 60.2071ZM62.2011 67.0482L59.867 68.7201C59.6336 68.8873 59.3739 68.9472 59.0837 68.8944C58.7881 68.8455 58.5614 68.7051 58.3902 68.4662L57.9842 67.8993C57.817 67.6659 57.757 67.4062 57.8059 67.1105C57.8532 66.8243 57.9936 66.5977 58.227 66.4305L60.5611 64.7586L62.2011 67.0482Z" fill="white"/>
<path d="M53.1485 66.0766C52.9227 65.4386 52.5033 64.9707 51.8902 64.6728C51.2795 64.3814 50.6519 64.3497 50.0139 64.5755L48.2998 65.1822C47.6618 65.408 47.1939 65.8275 46.9089 66.4359C46.6197 67.0531 46.588 67.6807 46.8139 68.3187L48.4492 72.9392C48.6751 73.5772 49.0945 74.0451 49.7029 74.3301C50.305 74.6173 50.9326 74.649 51.5705 74.4232L53.2847 73.8165C53.9227 73.5907 54.3906 73.1713 54.6843 72.567C54.978 71.9626 55.0097 71.3351 54.7839 70.6971L53.1485 66.0766ZM53.4628 71.1647C53.5586 71.4353 53.5441 71.7015 53.4169 71.9568C53.2855 72.2209 53.0878 72.3996 52.8171 72.4954L51.103 73.1021C50.8323 73.1979 50.5661 73.1834 50.3043 73.0585C50.0384 72.9423 49.8597 72.7445 49.7639 72.4739L48.1285 67.8534C48.0304 67.5763 48.0449 67.3101 48.174 67.0396C48.2989 66.7779 48.4967 66.5991 48.7673 66.5033L50.4815 65.8966C50.7522 65.8008 51.0184 65.8153 51.2866 65.938C51.5506 66.0693 51.7294 66.2671 51.8274 66.5442L53.4628 71.1647Z" fill="white"/>
<path d="M38.5417 66.6295L38.6228 68.0285L43.9322 67.7209L44.4182 76.1082L45.8172 76.0271L45.2502 66.2408L38.5417 66.6295Z" fill="white"/>
<path d="M31.1053 65.1512L30.7904 66.5168L35.9728 67.7118L34.0851 75.8983L35.4506 76.2132L37.6532 66.6611L31.1053 65.1512Z" fill="white"/>
<path d="M20.0006 61.2615C20.5238 60.8321 20.8158 60.2829 20.8778 59.6042C20.9398 58.9254 20.7561 58.3245 20.3268 57.8013L19.1819 56.4063C18.7526 55.8832 18.199 55.5858 17.5255 55.5195C16.8425 55.4522 16.2415 55.6359 15.7184 56.0652C13.3088 58.0427 16.8235 62.056 15.3228 63.2876C15.0956 63.4741 14.8403 63.551 14.5464 63.5269C14.2481 63.4975 14.0128 63.3723 13.8306 63.1504L12.677 61.7448C12.4949 61.5229 12.418 61.2676 12.4518 60.9746C12.4758 60.6807 12.601 60.4453 12.823 60.2632L11.9383 59.1852C11.4151 59.6145 11.123 60.1638 11.062 60.8329C10.9913 61.5011 11.175 62.102 11.6044 62.6251L12.7579 64.0307C13.1873 64.5539 13.7408 64.8513 14.4143 64.9176C15.0878 64.9839 15.6887 64.8002 16.2118 64.3709C18.6214 62.3934 15.111 58.3854 16.6117 57.1537C16.839 56.9673 17.0995 56.8861 17.3882 56.9145C17.6768 56.9429 17.9122 57.0681 18.0986 57.2953L19.2435 58.6904C19.43 58.9176 19.5069 59.1729 19.4828 59.4668C19.4587 59.7607 19.3335 59.9961 19.1116 60.1782L20.0006 61.2615Z" fill="white"/>
<path d="M14.9005 54.9146C15.5218 54.6463 15.9604 54.1963 16.2101 53.5673C16.4507 52.9348 16.44 52.3065 16.169 51.6789L15.4536 50.0221C15.1853 49.4007 14.7353 48.9621 14.109 48.7188C13.4738 48.4719 12.8455 48.4826 12.2242 48.7509L12.777 50.0311C13.0468 49.9146 13.3134 49.9112 13.592 50.0217C13.8615 50.1287 14.0532 50.314 14.167 50.5776L14.8825 52.2344C14.999 52.5043 15.0024 52.7709 14.8981 53.0467C14.7939 53.3226 14.6086 53.5142 14.345 53.6281L9.83264 55.5765C9.56905 55.6903 9.30247 55.6937 9.03917 55.584C8.76689 55.4708 8.57249 55.2792 8.45596 55.0093L7.74055 53.3525C7.62674 53.0889 7.62332 52.8223 7.7303 52.5528C7.83457 52.2769 8.01985 52.0852 8.28972 51.9687L7.7369 50.6884C7.11559 50.9567 6.67699 51.4067 6.42737 52.0357C6.17504 52.6584 6.18572 53.2867 6.454 53.908L7.16941 55.5649C7.4404 56.1924 7.89039 56.631 8.51583 56.8897C9.13856 57.142 9.76685 57.1313 10.3882 56.863L14.9005 54.9146Z" fill="white"/>
<path d="M13.9971 45.6747L9.83175 46.191L13.5633 42.1741L13.3497 40.451L9.61986 44.4814L9.47859 43.3417C9.39535 42.6701 9.08644 42.1229 8.55354 41.7136C8.0198 41.2976 7.41372 41.1316 6.7421 41.2149L6.05013 41.3006C5.37852 41.3839 4.8313 41.6928 4.41528 42.2265C3.99842 42.7535 3.83245 43.3596 3.91569 44.0312L4.44122 48.2712L14.1695 47.0654L13.9971 45.6747ZM5.64601 46.7098L5.29285 43.8605C5.25753 43.5756 5.32902 43.3187 5.5141 43.0891C5.69834 42.8528 5.92995 42.7207 6.22167 42.6846L6.91364 42.5988C7.19857 42.5635 7.4554 42.635 7.69178 42.8192C7.92052 42.9975 8.05255 43.2291 8.08787 43.5141L8.44103 46.3633L5.64601 46.7098Z" fill="white"/>
<path d="M10.7999 39.1813C11.4682 39.2876 12.0797 39.1427 12.6342 38.7464C13.182 38.3491 13.5096 37.8129 13.616 37.1445L13.9018 35.3488C14.0082 34.6804 13.8633 34.069 13.4649 33.528C13.0608 32.9791 12.5245 32.6515 11.8562 32.5451L7.01577 31.7746C6.34743 31.6682 5.73598 31.8132 5.19495 32.2116C4.65498 32.6032 4.32736 33.1395 4.22097 33.8078L3.93513 35.6036C3.82875 36.2719 3.97369 36.8833 4.36428 37.4301C4.75487 37.9768 5.29109 38.3044 5.95944 38.4108L10.7999 39.1813ZM6.17973 37.0268C5.89619 36.9817 5.66928 36.8417 5.50574 36.6081C5.33652 36.3665 5.27394 36.1074 5.31908 35.8238L5.60492 34.0281C5.65005 33.7446 5.79 33.5176 6.02477 33.3473C6.25386 33.1692 6.51301 33.1067 6.79655 33.1518L11.637 33.9223C11.9273 33.9685 12.1542 34.1084 12.3302 34.351C12.5004 34.5858 12.563 34.8449 12.5179 35.1285L12.232 36.9242C12.1869 37.2078 12.047 37.4347 11.8111 37.6117C11.5696 37.7809 11.3105 37.8435 11.0202 37.7973L6.17973 37.0268Z" fill="white"/>
<path d="M17.246 26.1067L15.9788 25.5084L13.7081 30.3176L6.11096 26.7306L5.51263 27.9978L14.377 32.1831L17.246 26.1067Z" fill="white"/>
<path d="M22.037 20.3067L20.9868 19.3788L17.4655 23.3645L11.1694 17.802L10.2415 18.8522L17.5879 25.3426L22.037 20.3067Z" fill="white"/>
<path d="M30.8032 12.2789C30.93 12.9437 31.2726 13.4629 31.839 13.842C32.4054 14.2211 33.021 14.3473 33.6858 14.2205L35.4585 13.8824C36.1233 13.7556 36.6492 13.4117 37.0296 12.852C37.4154 12.2843 37.5416 11.6687 37.4148 11.0039C36.8307 7.94194 31.6252 9.10882 31.2614 7.20179C31.2063 6.91305 31.261 6.65211 31.4227 6.40552C31.5912 6.15766 31.8137 6.01082 32.0957 5.95703L33.8819 5.61635C34.1639 5.56255 34.4248 5.61717 34.666 5.78691C34.9126 5.94865 35.0594 6.17117 35.1132 6.4532L36.483 6.19192C36.3562 5.52715 36.0136 5.00792 35.4552 4.63425C34.9022 4.25258 34.2866 4.12643 33.6219 4.25322L31.8357 4.59391C31.1709 4.72071 30.645 5.06459 30.2646 5.62429C29.8842 6.18399 29.7581 6.79958 29.8849 7.46435C30.4689 10.5263 35.6678 9.36074 36.0315 11.2678C36.0866 11.5565 36.0333 11.8242 35.8702 12.064C35.7072 12.3039 35.4847 12.4507 35.1959 12.5058L33.4232 12.8439C33.1345 12.899 32.8735 12.8444 32.6269 12.6827C32.3804 12.5209 32.2335 12.2984 32.1797 12.0164L30.8032 12.2789Z" fill="white"/>
<path d="M38.865 10.8204C38.8025 11.4943 38.987 12.095 39.4193 12.6157C39.8589 13.1302 40.4154 13.4221 41.0961 13.4853L42.893 13.6521C43.5669 13.7146 44.1676 13.5301 44.6815 13.0972C45.2028 12.6582 45.4947 12.1017 45.5573 11.4278L44.1687 11.299C44.1415 11.5916 44.0167 11.8272 43.7861 12.0186C43.5629 12.2039 43.3084 12.2832 43.0225 12.2567L41.2256 12.0899C40.9329 12.0627 40.6973 11.9379 40.5053 11.7141C40.3132 11.4903 40.2339 11.2358 40.2604 10.9499L40.7146 6.05593C40.7412 5.77005 40.866 5.53449 41.0885 5.35605C41.3185 5.17143 41.5798 5.09271 41.8725 5.11987L43.6695 5.28666C43.9553 5.31319 44.1909 5.43803 44.3762 5.66119C44.5682 5.88497 44.6476 6.13949 44.6204 6.43218L46.009 6.56105C46.0715 5.88719 45.887 5.28651 45.4547 4.76582C45.0293 4.24576 44.4728 3.95383 43.799 3.89129L42.002 3.7245C41.3213 3.66132 40.7207 3.84586 40.1938 4.27067C39.6737 4.6961 39.3818 5.25256 39.3193 5.92642L38.865 10.8204Z" fill="white"/>
<path d="M47.3535 14.4086L48.8868 10.5014L50.6371 15.6971L52.2534 16.3314L50.4904 11.1307L51.5595 11.5502C52.1895 11.7975 52.8178 11.787 53.4316 11.5139C54.0519 11.2432 54.4869 10.7897 54.7341 10.1597L54.9888 9.51067C55.236 8.88069 55.2256 8.25239 54.9549 7.63214C54.6907 7.01439 54.2372 6.5794 53.6072 6.33218L49.63 4.77141L46.049 13.8966L47.3535 14.4086ZM50.4276 6.57513L53.1003 7.62397C53.3675 7.72885 53.5591 7.9142 53.6726 8.18639C53.7925 8.46107 53.798 8.72761 53.6907 9.00124L53.4359 9.65032C53.3311 9.91758 53.1457 10.1092 52.871 10.2291C52.6052 10.3451 52.3387 10.3506 52.0714 10.2457L49.3987 9.19689L50.4276 6.57513Z" fill="white"/>
<path d="M54.6733 14.7355C54.2594 15.271 54.0933 15.877 54.1751 16.5537C54.261 17.2249 54.5744 17.7696 55.1098 18.1835L56.5484 19.2956C57.0838 19.7095 57.6899 19.8756 58.3557 19.7855C59.0311 19.6941 59.5758 19.3808 59.9897 18.8453L62.9874 14.9675C63.4013 14.4321 63.5674 13.8261 63.4773 13.1602C63.3926 12.4986 63.0792 11.9539 62.5438 11.54L61.1052 10.4279C60.5697 10.014 59.9637 9.84791 59.2966 9.92842C58.6296 10.0089 58.0849 10.3223 57.671 10.8577L54.6733 14.7355ZM58.7797 11.7148C58.9553 11.4877 59.1869 11.3557 59.4704 11.3243C59.7635 11.2916 60.0209 11.361 60.2481 11.5366L61.6867 12.6487C61.9139 12.8243 62.0459 13.056 62.0827 13.3436C62.1291 13.6301 62.0597 13.8875 61.8841 14.1146L58.8864 17.9924C58.7066 18.225 58.475 18.357 58.1777 18.395C57.8901 18.4319 57.6326 18.3625 57.4055 18.1869L55.9669 17.0748C55.7397 16.8992 55.6077 16.6675 55.5655 16.3757C55.5329 16.0826 55.6022 15.8252 55.782 15.5926L58.7797 11.7148Z" fill="white"/>
<path d="M63.112 26.7016L64.2422 25.8732L61.098 21.5838L67.8739 16.6169L67.0455 15.4866L59.1393 21.282L63.112 26.7016Z" fill="white"/>
<path d="M65.8896 33.6042L67.2053 33.1218L65.3744 28.1285L73.2622 25.2362L72.7797 23.9205L63.5762 27.2953L65.8896 33.6042Z" fill="white"/>
<circle cx="39.9993" cy="40.0001" r="2.32258" fill="white"/>
</svg>
