<svg width="40" height="40" viewBox="0 0 40 40" fill="none" xmlns="http://www.w3.org/2000/svg">
<g clip-path="url(#clip0_559_89)">
<rect width="40" height="40" rx="4" fill="white"/>
<path fill-rule="evenodd" clip-rule="evenodd" d="M24.0149 17.4218C25.2416 18.2939 26.7106 18.7598 28.2156 18.7541V15.7714C27.9197 15.7722 27.6246 15.7406 27.3357 15.677V18.0532C25.8273 18.0558 24.3562 17.5846 23.1301 16.706V22.8404C23.1264 23.847 22.8503 24.8338 22.3312 25.6963C21.8121 26.5587 21.0693 27.2646 20.1815 27.739C19.2937 28.2135 18.2941 28.4389 17.2886 28.3912C16.2831 28.3436 15.3093 28.0248 14.4703 27.4685C15.2463 28.2537 16.2379 28.7909 17.3194 29.0122C18.401 29.2335 19.5238 29.1288 20.5459 28.7115C21.5679 28.2942 22.4431 27.5829 23.0606 26.6679C23.6782 25.7528 24.0103 24.6751 24.0149 23.5712V17.4218ZM25.1036 14.3795C24.4798 13.7034 24.0971 12.84 24.0149 11.9237V11.536H23.1798C23.283 12.1184 23.5077 12.6726 23.8391 13.1625C24.1706 13.6524 24.6014 14.067 25.1036 14.3795ZM16.4041 25.1072C16.1146 24.7287 15.9372 24.2765 15.8921 23.8022C15.847 23.3278 15.9359 22.8503 16.1488 22.424C16.3617 21.9977 16.69 21.6397 17.0964 21.3908C17.5027 21.1418 17.9707 21.012 18.4472 21.016C18.7103 21.0159 18.9719 21.0561 19.2227 21.1353V18.0532C18.9295 18.0143 18.6337 17.9977 18.3379 18.0035V20.3996C17.727 20.2065 17.0658 20.2504 16.4858 20.5226C15.9058 20.7948 15.4495 21.2753 15.2077 21.8686C14.9658 22.4619 14.9562 23.1245 15.1806 23.7246C15.4051 24.3247 15.8472 24.8183 16.419 25.1072H16.4041Z" fill="#E9ABE1"/>
<path fill-rule="evenodd" clip-rule="evenodd" d="M23.1296 16.6861C24.3557 17.5647 25.8268 18.036 27.3352 18.0333V15.6571C26.4758 15.4754 25.6951 15.0285 25.1032 14.3795C24.601 14.067 24.1701 13.6524 23.8387 13.1625C23.5072 12.6726 23.2826 12.1184 23.1794 11.536H20.9821V23.5712C20.9801 24.1039 20.8112 24.6226 20.4993 25.0545C20.1874 25.4863 19.7481 25.8097 19.2431 25.9791C18.738 26.1486 18.1926 26.1556 17.6833 25.9992C17.1741 25.8429 16.7266 25.5309 16.4037 25.1072C15.8919 24.849 15.4821 24.4259 15.2403 23.9062C14.9985 23.3865 14.9388 22.8004 15.0709 22.2427C15.203 21.6849 15.5192 21.1879 15.9685 20.8318C16.4177 20.4758 16.9738 20.2815 17.547 20.2803C17.81 20.2811 18.0714 20.3213 18.3225 20.3996V18.0035C17.2376 18.0295 16.1839 18.3718 15.2908 18.9882C14.3976 19.6047 13.7039 20.4685 13.2948 21.4736C12.8857 22.4788 12.7789 23.5815 12.9877 24.6465C13.1964 25.7114 13.7116 26.6922 14.4699 27.4685C15.309 28.0288 16.2844 28.3509 17.2921 28.4006C18.2999 28.4503 19.3022 28.2258 20.1924 27.7508C21.0826 27.2759 21.8273 26.5684 22.3472 25.7036C22.8671 24.8389 23.1426 23.8494 23.1446 22.8404L23.1296 16.6861Z" fill="#E9ABE1"/>
<path fill-rule="evenodd" clip-rule="evenodd" d="M27.3352 15.6571L27.3355 15.0156C26.5463 15.0189 25.7724 14.7985 25.1036 14.3795C25.6941 15.0304 26.475 15.4776 27.3352 15.6571ZM23.1798 11.536C23.1798 11.4216 23.1448 11.3021 23.1299 11.1878V10.8H20.0975V22.8402C20.0949 23.5144 19.8249 24.16 19.3468 24.6353C18.8687 25.1106 18.2215 25.3768 17.5473 25.3755C17.1503 25.3775 16.7587 25.2857 16.4041 25.1072C16.727 25.5309 17.1741 25.8429 17.6833 25.9992C18.1926 26.1556 18.738 26.1486 19.2431 25.9791C19.7481 25.8097 20.1874 25.4863 20.4993 25.0545C20.8112 24.6226 20.9801 24.1039 20.9821 23.5712V11.536H23.1798ZM18.3228 17.9983V17.3172C17.075 17.1477 15.8066 17.4058 14.7242 18.0495C13.6419 18.6932 12.8095 19.6845 12.3626 20.8618C11.9158 22.0392 11.8809 23.3331 12.2636 24.5328C12.6463 25.7325 13.4242 26.7675 14.4703 27.4685C13.7177 26.6904 13.2079 25.7098 13.0034 24.6468C12.7989 23.5838 12.9085 22.4842 13.3187 21.4824C13.7289 20.4806 14.422 19.62 15.3133 19.0057C16.2046 18.3914 17.2555 18.05 18.3377 18.0231L18.3228 17.9983Z" fill="#E9ABE1"/>
</g>
<defs>
<clipPath id="clip0_559_89">
<rect width="40" height="40" rx="4" fill="white"/>
</clipPath>
</defs>
</svg>
