<svg width="40" height="41" viewBox="0 0 40 41" fill="none" xmlns="http://www.w3.org/2000/svg">
    <g clip-path="url(#clip0_525_321)">
        <rect y="0.0727539" width="40" height="40" rx="4" fill="#E9ABE1"/>
        <path fill-rule="evenodd" clip-rule="evenodd"
              d="M24.0149 17.4946C25.2416 18.3666 26.7106 18.8325 28.2156 18.8269V15.8442C27.9197 15.845 27.6246 15.8133 27.3357 15.7497V18.1259C25.8273 18.1286 24.3562 17.6574 23.1301 16.7787V22.9132C23.1264 23.9198 22.8503 24.9066 22.3312 25.769C21.8121 26.6314 21.0693 27.3373 20.1815 27.8118C19.2937 28.2862 18.2941 28.5116 17.2886 28.464C16.2831 28.4164 15.3093 28.0975 14.4703 27.5413C15.2463 28.3265 16.2379 28.8637 17.3194 29.085C18.401 29.3062 19.5238 29.2016 20.5459 28.7842C21.5679 28.3669 22.4431 27.6557 23.0606 26.7406C23.6782 25.8256 24.0103 24.7478 24.0149 23.6439V17.4946ZM25.1036 14.4522C24.4798 13.7761 24.0971 12.9127 24.0149 11.9965V11.6087H23.1798C23.283 12.1911 23.5077 12.7453 23.8391 13.2352C24.1706 13.7251 24.6014 14.1398 25.1036 14.4522ZM16.4041 25.18C16.1146 24.8015 15.9372 24.3493 15.8921 23.8749C15.847 23.4006 15.9359 22.923 16.1488 22.4967C16.3617 22.0704 16.69 21.7124 17.0964 21.4635C17.5027 21.2146 17.9707 21.0847 18.4472 21.0887C18.7103 21.0887 18.9719 21.1289 19.2227 21.208V18.1259C18.9295 18.0871 18.6337 18.0705 18.3379 18.0762V20.4723C17.727 20.2792 17.0658 20.3231 16.4858 20.5953C15.9058 20.8675 15.4495 21.348 15.2077 21.9413C14.9658 22.5346 14.9562 23.1972 15.1806 23.7973C15.4051 24.3974 15.8472 24.891 16.419 25.18H16.4041Z"
              fill="white"/>
        <path fill-rule="evenodd" clip-rule="evenodd"
              d="M23.1296 16.7589C24.3557 17.6375 25.8268 18.1087 27.3352 18.106V15.7298C26.4758 15.5481 25.6951 15.1013 25.1032 14.4522C24.601 14.1398 24.1701 13.7251 23.8387 13.2352C23.5072 12.7453 23.2826 12.1911 23.1794 11.6087H20.9821V23.6439C20.9801 24.1766 20.8112 24.6953 20.4993 25.1272C20.1874 25.5591 19.7481 25.8824 19.2431 26.0519C18.738 26.2213 18.1926 26.2284 17.6833 26.072C17.1741 25.9156 16.7266 25.6037 16.4037 25.18C15.8919 24.9218 15.4821 24.4987 15.2403 23.9789C14.9985 23.4592 14.9388 22.8732 15.0709 22.3154C15.203 21.7576 15.5192 21.2606 15.9685 20.9046C16.4177 20.5485 16.9738 20.3542 17.547 20.353C17.81 20.3538 18.0714 20.3941 18.3225 20.4723V18.0762C17.2376 18.1023 16.1839 18.4445 15.2908 19.061C14.3976 19.6774 13.7039 20.5412 13.2948 21.5464C12.8857 22.5515 12.7789 23.6542 12.9877 24.7192C13.1964 25.7842 13.7116 26.765 14.4699 27.5413C15.309 28.1015 16.2844 28.4237 17.2921 28.4734C18.2999 28.5231 19.3022 28.2985 20.1924 27.8236C21.0826 27.3486 21.8273 26.6411 22.3472 25.7764C22.8671 24.9117 23.1426 23.9221 23.1446 22.9132L23.1296 16.7589Z"
              fill="white"/>
        <path fill-rule="evenodd" clip-rule="evenodd"
              d="M27.3352 15.7298L27.3355 15.0883C26.5463 15.0917 25.7724 14.8713 25.1036 14.4522C25.6941 15.1031 26.475 15.5504 27.3352 15.7298ZM23.1798 11.6087C23.1798 11.4944 23.1448 11.3749 23.1299 11.2606V10.8728H20.0975V22.9129C20.0949 23.5871 19.8249 24.2327 19.3468 24.708C18.8687 25.1833 18.2215 25.4496 17.5473 25.4482C17.1503 25.4502 16.7587 25.3584 16.4041 25.18C16.727 25.6037 17.1741 25.9156 17.6833 26.072C18.1926 26.2284 18.738 26.2213 19.2431 26.0519C19.7481 25.8824 20.1874 25.5591 20.4993 25.1272C20.8112 24.6953 20.9801 24.1766 20.9821 23.6439V11.6087H23.1798ZM18.3228 18.071V17.39C17.075 17.2205 15.8066 17.4786 14.7242 18.1223C13.6419 18.7659 12.8095 19.7572 12.3626 20.9346C11.9158 22.1119 11.8809 23.4059 12.2636 24.6056C12.6463 25.8053 13.4242 26.8402 14.4703 27.5413C13.7177 26.7632 13.2079 25.7825 13.0034 24.7195C12.7989 23.6565 12.9085 22.5569 13.3187 21.5552C13.7289 20.5534 14.422 19.6928 15.3133 19.0785C16.2046 18.4641 17.2555 18.1227 18.3377 18.0959L18.3228 18.071Z"
              fill="white"/>
    </g>
    <defs>
        <clipPath id="clip0_525_321">
            <rect y="0.0727539" width="40" height="40" rx="4" fill="white"/>
        </clipPath>
    </defs>
</svg>
