<svg width="80" height="80" viewBox="0 0 80 80" fill="none" xmlns="http://www.w3.org/2000/svg">
    <g clip-path="url(#clip0_651_669)">
        <path d="M63.4177 52.7625L65.9658 46.5446L75.0364 50.2618L74.505 51.5585L66.7311 48.3727L64.7144 53.2939L63.4177 52.7625Z"
              fill="white"/>
        <path d="M65.0484 55.0161L68.8932 58.056C69.4241 58.4758 69.7315 59.0238 69.8047 59.6917C69.8779 60.3596 69.7052 60.9638 69.2855 61.4947L68.1577 62.9211C67.738 63.4519 67.1899 63.7594 66.5274 63.8368C65.8606 63.9196 65.2564 63.7469 64.7255 63.3272L60.8807 60.2873C60.3499 59.8675 60.0425 59.3195 59.9585 58.6431C59.8757 57.9763 60.0484 57.3721 60.4681 56.8412L61.5959 55.4149C62.0157 54.884 62.5637 54.5766 63.2359 54.498C63.9134 54.4237 64.5176 54.5964 65.0484 55.0161ZM68.0241 59.1553L64.1793 56.1154C63.9487 55.9331 63.6921 55.8609 63.3986 55.8903C63.1063 55.9294 62.8733 56.0588 62.6952 56.284L61.5674 57.7104C61.3894 57.9356 61.3172 58.1923 61.3508 58.4803C61.3856 58.778 61.5151 59.0111 61.7457 59.1934L65.5904 62.2333C65.8157 62.4113 66.0723 62.4835 66.3592 62.4403C66.6473 62.4066 66.8804 62.2771 67.0584 62.0519L68.1862 60.6255C68.3643 60.4003 68.4365 60.1437 68.407 59.8503C68.3787 59.5664 68.2493 59.3334 68.0241 59.1553Z"
              fill="white"/>
        <path d="M57.1952 60.2828L58.4401 59.3911L61.9811 68.9128L60.8474 69.7249L52.9772 63.3042L54.2165 62.4165L55.3382 63.3368L57.7168 61.633L57.1952 60.2828ZM59.7901 67.0515L58.2383 62.9833L56.4488 64.2651L59.7901 67.0515Z"
              fill="white"/>
        <path d="M48.2998 65.1822L52.3274 63.7566L55.5982 72.9976L51.5705 74.4231C50.9326 74.649 50.305 74.6173 49.7029 74.33C49.0945 74.045 48.6751 73.5771 48.4492 72.9391L46.8139 68.3186C46.588 67.6807 46.6197 67.0531 46.9089 66.4359C47.1939 65.8274 47.6618 65.408 48.2998 65.1822ZM53.8141 72.157L51.4739 65.5453L48.7673 66.5032C48.4967 66.599 48.2989 66.7778 48.174 67.0396C48.0449 67.31 48.0304 67.5762 48.1285 67.8533L49.7639 72.4738C49.8597 72.7445 50.0384 72.9423 50.3066 73.0649C50.5707 73.1962 50.8369 73.2108 51.1075 73.115L53.8141 72.157Z"
              fill="white"/>
        <path d="M38.5417 66.6294L45.2502 66.2407L45.3312 67.6398L42.6697 67.794L43.0754 74.7959L45.7369 74.6417L45.8172 76.0271L39.1087 76.4158L39.0285 75.0304L41.6832 74.8766L41.2775 67.8746L38.6228 68.0285L38.5417 66.6294Z"
              fill="white"/>
        <path d="M36.2877 66.3463L37.6532 66.6612L35.4506 76.2132L34.0851 75.8984L31.8344 68.1957L30.2616 75.0167L28.9027 74.7034L31.1053 65.1513L32.4642 65.4646L34.7117 73.1806L36.2877 66.3463Z"
              fill="white"/>
        <path d="M29.0399 66.828L26.9911 71.2957C26.709 71.9108 26.2493 72.3393 25.6178 72.5686C24.98 72.795 24.3521 72.7703 23.7307 72.4853L22.0903 71.733C21.4751 71.4509 21.0467 70.9912 20.8174 70.3597C20.5819 69.7252 20.6066 69.0973 20.8887 68.4822L22.1563 69.0635C22.0338 69.3307 22.0244 69.5971 22.1287 69.8781C22.2268 70.1562 22.4078 70.352 22.6687 70.4717L24.3092 71.2239C24.5763 71.3465 24.8428 71.3558 25.1237 71.2515C25.4019 71.1535 25.5976 70.9725 25.7173 70.7115L27.7661 66.2439C27.8858 65.9829 27.8952 65.7165 27.788 65.4417C27.6809 65.167 27.4999 64.9712 27.2328 64.8486L25.5923 64.0964C25.3314 63.9767 25.0649 63.9673 24.793 64.0682C24.5121 64.1725 24.3163 64.3535 24.1937 64.6207L23.47 66.199L25.2533 67.0168L24.6692 68.2906L21.6182 66.8915L22.9261 64.0394C23.2083 63.4242 23.6679 62.9958 24.3052 62.7541C24.9334 62.5157 25.5613 62.5405 26.1765 62.8226L27.8169 63.5748C28.4383 63.8598 28.8667 64.3195 29.1113 64.9505C29.3468 65.585 29.322 66.2129 29.0399 66.828Z"
              fill="white"/>
        <path d="M17.6294 54.5146L21.8924 59.709L14.3148 65.9278L13.4258 64.8446L19.9201 59.5148L16.5461 55.4036L17.6294 54.5146Z"
              fill="white"/>
        <path d="M14.888 54.92L10.3882 56.863C9.76685 57.1312 9.13856 57.1419 8.51583 56.8896C7.8931 56.6373 7.44311 56.1987 7.17483 55.5773L6.454 53.908C6.18572 53.2867 6.17504 52.6584 6.42109 52.0383C6.66443 51.412 7.10304 50.9621 7.72435 50.6938L12.2242 48.7508C12.8455 48.4825 13.4738 48.4718 14.109 48.7187C14.7353 48.9621 15.1853 49.4007 15.4536 50.022L16.1744 51.6914C16.4427 52.3127 16.4534 52.941 16.2038 53.57C15.9479 54.2017 15.5093 54.6517 14.888 54.92ZM9.83264 55.5764L14.3324 53.6334C14.6023 53.5169 14.7876 53.3252 14.9008 53.0529C15.0051 52.7771 15.0017 52.5105 14.8879 52.2469L14.167 50.5775C14.0532 50.3139 13.8615 50.1287 13.592 50.0217C13.3134 49.9111 13.0468 49.9145 12.777 50.0311L8.27717 51.9741C8.01358 52.0879 7.8283 52.2796 7.7303 52.5527C7.62332 52.8223 7.62674 53.0889 7.74055 53.3524L8.46138 55.0218C8.5752 55.2854 8.76689 55.4707 9.03917 55.5839C9.30247 55.6936 9.56905 55.6902 9.83264 55.5764Z"
              fill="white"/>
        <path d="M13.9812 45.5457L14.1695 47.0654L4.11329 45.6254L3.94176 44.2414L13.343 40.3967L13.5305 41.9095L12.186 42.455L12.5459 45.3586L13.9812 45.5457ZM6.79541 44.5903L11.1106 45.1714L10.8398 42.9869L6.79541 44.5903Z"
              fill="white"/>
        <path d="M13.9018 35.3488L13.2302 39.5682L3.54935 38.0272L4.22097 33.8079C4.32736 33.1395 4.65498 32.6033 5.19495 32.2116C5.73598 31.8132 6.34743 31.6683 7.01577 31.7747L11.8562 32.5451C12.5245 32.6515 13.0608 32.9792 13.4649 33.528C13.8633 34.0691 14.0082 34.6805 13.9018 35.3488ZM5.14008 36.8614L12.0666 37.9639L12.5179 35.1285C12.563 34.845 12.5004 34.5859 12.3302 34.3511C12.1542 34.1085 11.9273 33.9685 11.637 33.9223L6.79655 33.1518C6.51301 33.1067 6.25386 33.1693 6.01802 33.3463C5.7765 33.5156 5.63655 33.7425 5.59142 34.026L5.14008 36.8614Z"
              fill="white"/>
        <path d="M17.246 26.1066L14.377 32.1831L13.1097 31.5847L14.248 29.1739L7.90576 26.1794L6.76748 28.5902L5.51263 27.9977L8.38168 21.9213L9.63653 22.5137L8.50117 24.9184L14.8434 27.9129L15.9788 25.5083L17.246 26.1066Z"
              fill="white"/>
        <path d="M18.5157 24.2924L17.5879 25.3426L10.2415 18.8522L11.1694 17.802L19.0133 19.4961L13.7673 14.8614L14.6907 13.8163L22.037 20.3067L21.1137 21.3518L13.2595 19.6486L18.5157 24.2924Z"
              fill="white"/>
        <path d="M21.6047 17.6098L18.6557 13.6778C18.2497 13.1363 18.0925 12.5279 18.1923 11.8635C18.2975 11.1949 18.6188 10.6549 19.1657 10.2448L20.6095 9.16195C21.1509 8.7559 21.7593 8.59867 22.4237 8.69848C23.0937 8.79419 23.6337 9.11548 24.0397 9.65689L22.9241 10.4936C22.7478 10.2584 22.5181 10.1231 22.2214 10.0807C21.9302 10.0342 21.6718 10.0998 21.4421 10.2721L19.9983 11.3549C19.7632 11.5313 19.6278 11.761 19.5854 12.0576C19.5389 12.3489 19.6046 12.6073 19.7768 12.8369L22.7258 16.769C22.8981 16.9987 23.1278 17.134 23.4204 17.1709C23.7129 17.2079 23.9713 17.1422 24.2065 16.9659L25.6503 15.8831C25.8799 15.7108 26.0153 15.4811 26.0563 15.194C26.0987 14.8973 26.0331 14.6389 25.8567 14.4038L24.8149 13.0147L23.2454 14.1918L22.4046 13.0707L25.0897 11.0569L26.9723 13.5671C27.3784 14.1085 27.5356 14.7169 27.444 15.3923C27.3538 16.0581 27.0325 16.5981 26.4911 17.0042L25.0473 18.087C24.5004 18.4971 23.892 18.6544 23.2207 18.5682C22.5508 18.4725 22.0108 18.1512 21.6047 17.6098Z"
              fill="white"/>
        <path d="M37.8624 13.4238L31.2617 14.6829L29.4251 5.05371L30.8016 4.79115L32.3757 13.0437L37.5999 12.0473L37.8624 13.4238Z"
              fill="white"/>
        <path d="M38.8663 10.8068L39.3193 5.92642C39.3818 5.25256 39.6737 4.6961 40.1938 4.27067C40.7139 3.84523 41.3145 3.66069 41.9884 3.72324L43.799 3.89129C44.4728 3.95383 45.0293 4.24576 45.4554 4.75902C45.8882 5.2729 46.0728 5.87358 46.0102 6.54744L45.5573 11.4278C45.4947 12.1017 45.2028 12.6582 44.6815 13.0972C44.1676 13.5301 43.5669 13.7146 42.893 13.6521L41.0824 13.484C40.4086 13.4215 39.8521 13.1295 39.4199 12.6089C38.9883 12.0814 38.8037 11.4807 38.8663 10.8068ZM40.7146 6.05593L40.2617 10.9363C40.2345 11.229 40.3138 11.4835 40.4985 11.7135C40.6905 11.9373 40.9261 12.0621 41.212 12.0886L43.0225 12.2567C43.3084 12.2832 43.5629 12.2039 43.7861 12.0186C44.0167 11.8272 44.1415 11.5916 44.1687 11.299L44.6217 6.41856C44.6482 6.13268 44.5688 5.87816 44.3762 5.66119C44.1909 5.43803 43.9553 5.31319 43.6695 5.28666L41.8589 5.11861C41.573 5.09207 41.3185 5.17143 41.0885 5.35605C40.866 5.53449 40.7412 5.77005 40.7146 6.05593Z"
              fill="white"/>
        <path d="M47.4744 14.456L46.049 13.8966L52.1118 5.74533L53.4099 6.25476L52.3043 16.3514L50.8852 15.7945L51.0472 14.3527L48.3236 13.2839L47.4744 14.456ZM51.742 8.59635L49.1728 12.1117L51.2219 12.9158L51.742 8.59635Z"
              fill="white"/>
        <path d="M56.5484 19.2956L53.1682 16.6825L59.1636 8.92696L62.5438 11.54C63.0792 11.9539 63.3926 12.4986 63.4773 13.1602C63.5674 13.8261 63.4013 14.4321 62.9874 14.9675L59.9897 18.8453C59.5758 19.3808 59.0311 19.6941 58.3557 19.7855C57.6899 19.8756 57.0838 19.7095 56.5484 19.2956ZM59.4236 10.8819L55.134 16.4309L57.4055 18.1869C57.6326 18.3625 57.8901 18.4319 58.1777 18.395C58.475 18.357 58.7066 18.225 58.8864 17.9924L61.8841 14.1146C62.0597 13.8875 62.1291 13.6301 62.0869 13.3382C62.0542 13.0451 61.9222 12.8135 61.6951 12.6379L59.4236 10.8819Z"
              fill="white"/>
        <path d="M63.112 26.7016L59.1393 21.282L60.2695 20.4535L61.8457 22.6037L67.5024 18.4573L65.9262 16.307L67.0455 15.4866L71.0182 20.9063L69.8989 21.7267L68.3268 19.582L62.6701 23.7285L64.2422 25.8732L63.112 26.7016Z"
              fill="white"/>
        <path d="M64.0587 28.611L63.5762 27.2953L72.7797 23.9205L73.2622 25.2362L68.0409 31.3301L74.613 28.9202L75.0931 30.2295L65.8896 33.6042L65.4095 32.295L70.6436 26.1964L64.0587 28.611Z"
              fill="white"/>
        <path d="M68.4459 34.4477L73.3084 33.7309C73.978 33.6323 74.5877 33.7842 75.1241 34.1888C75.6615 34.6002 75.983 35.1402 76.0826 35.8165L76.3458 37.6018C76.4445 38.2714 76.2925 38.8811 75.8879 39.4175C75.4843 39.9607 74.9444 40.2821 74.2748 40.3808L74.0715 39.0012C74.3623 38.9583 74.5908 38.821 74.7695 38.5805C74.9493 38.3467 75.0148 38.0883 74.973 37.8042L74.7098 36.0188C74.6669 35.728 74.5296 35.4995 74.289 35.3208C74.0553 35.141 73.7968 35.0755 73.5128 35.1173L68.6503 35.8341C68.3663 35.876 68.1377 36.0133 67.9658 36.2528C67.7938 36.4924 67.7282 36.7508 67.7711 37.0416L68.0343 38.827C68.0761 39.1111 68.2135 39.3396 68.4463 39.5125C68.6868 39.6913 68.9452 39.7568 69.236 39.714L70.9538 39.4608L70.6677 37.5198L72.0541 37.3155L72.5435 40.636L69.4394 41.0936C68.7699 41.1923 68.1601 41.0403 67.6102 40.6377C67.068 40.2408 66.7466 39.7009 66.6479 39.0314L66.3847 37.246C66.285 36.5697 66.437 35.96 66.8328 35.411C67.2365 34.8678 67.7764 34.5464 68.4459 34.4477Z"
              fill="white"/>
        <circle cx="39.9993" cy="40.0001" r="2.32258" fill="white"/>
    </g>
    <defs>
        <clipPath id="clip0_651_669">
            <rect width="80" height="80" fill="white"/>
        </clipPath>
    </defs>
</svg>
