<?xml version="1.0" encoding="UTF-8"?>
<svg id="_Слой_2" data-name="Слой 2" xmlns="http://www.w3.org/2000/svg" viewBox="0 0 213.37 144.2">
  <defs>
    <style>
      .cls-1 {
        fill: #fff;
      }
    </style>
  </defs>
  <g id="Layer_1" data-name="Layer 1">
    <g>
      <g>
        <path class="cls-1" d="m98.57,17.58L114.97.16c.31-.33.86-.11.86.34v88.58c0,.51-.19,1-.54,1.37l-16.4,17.43c-.31.33-.86.11-.86-.34V18.95c0-.51.19-1,.54-1.37Z"/>
        <path class="cls-1" d="m138.59,80.8c-8.76-8.93-13.66-20.94-13.66-33.45v-28.69c0-.28.22-.5.5-.5h46.3c.55,0,1.08.23,1.46.63l15.37,16.34c.3.32.07.84-.36.84h-44.96c-.28,0-.5.22-.5.5v5.33c0,11.7,4.77,23.14,13.09,31.37l15.92,15.76c.32.31.1.85-.35.86l-23.08.09c-.54,0-1.06-.21-1.44-.6l-8.3-8.46Z"/>
        <path class="cls-1" d="m40.67,89.24l-15.37-16.34c-.3-.32-.07-.84.36-.84h44.96c.28,0,.5-.22.5-.5v-5.33c0-11.78-4.71-23.08-13.09-31.37l-15.92-15.76c-.32-.31-.1-.85.35-.86l23.08-.09c.54,0,1.06.21,1.44.6l8.3,8.46c8.76,8.93,13.66,20.94,13.66,33.45v28.69c0,.28-.22.5-.5.5h-46.3c-.55,0-1.08-.23-1.46-.63Z"/>
      </g>
      <g>
        <path class="cls-1" d="m5.05,135.43c-.37-.36-.55-.89-.55-1.6v-10.76c0-.11-.09-.2-.2-.2H.2c-.11,0-.2.09-.2.2v11.13c0,.88.14,1.67.43,2.36.29.69.69,1.27,1.2,1.73.52.47,1.13.82,1.85,1.06.72.24,1.51.36,2.38.36h9.97c.11,0,.2-.09.2-.2v-3.33c0-.11-.09-.2-.2-.2H6.63c-.69,0-1.22-.18-1.58-.54Z"/>
        <path class="cls-1" d="m23.76,123.01l-5.64,16.43c-.04.13.05.26.19.26h4.07c.09,0,.16-.05.19-.14l4.09-12.06c.06-.18.32-.18.38,0l2.78,8.19c.04.13-.05.26-.19.26h-3.47c-.09,0-.16.05-.19.14l-1.13,3.33c-.04.13.05.26.19.26h10.38c.14,0,.23-.14.19-.27l-5.66-16.43c-.03-.08-.1-.13-.19-.13h-5.81c-.09,0-.16.05-.19.14Z"/>
        <path class="cls-1" d="m145.04,123.01l-5.64,16.43c-.04.13.05.26.19.26h4.07c.09,0,.16-.05.19-.14l4.09-12.06c.06-.18.32-.18.38,0l2.78,8.19c.04.13-.05.26-.19.26h-3.47c-.09,0-.16.05-.19.14l-1.13,3.33c-.04.13.05.26.19.26h10.38c.14,0,.23-.14.19-.27l-5.66-16.43c-.03-.08-.1-.13-.19-.13h-5.81c-.09,0-.16.05-.19.14Z"/>
        <path class="cls-1" d="m42.73,128.41l-3.51-5.44c-.04-.06-.1-.09-.17-.09h-4.52c-.16,0-.25.17-.17.31l6.22,9.94s.03.07.03.11v6.28c0,.11.09.2.2.2h4.12c.11,0,.2-.09.2-.2v-6.28s.01-.07.03-.11l6.24-9.94c.08-.13-.01-.31-.17-.31h-4.54c-.07,0-.13.03-.17.09l-3.46,5.44c-.08.12-.26.12-.34,0Z"/>
        <path class="cls-1" d="m88.17,131.95c1.1-.81,1.72-2,1.87-3.57v-.71c-.1-.77-.31-1.45-.63-2.05-.32-.6-.73-1.1-1.24-1.5-.51-.4-1.11-.71-1.79-.92s-1.43-.32-2.24-.32h-12.34c-.14,0-.24.14-.19.27l1.33,3.33c.03.08.1.13.19.13h10.25c.56,0,1.04.11,1.45.33.41.22.61.59.61,1.09s-.21.85-.61,1.07c-.41.22-.89.33-1.45.33h-10.93c-.11,0-.2.09-.2.2v9.87c0,.11.09.2.2.2h4.12c.11,0,.2-.09.2-.2v-6.34h1.15c.05,0,.1.02.14.06l6.47,6.42s.09.06.14.06h4.97c.18,0,.27-.21.14-.34l-5.76-5.87c-.12-.12-.03-.33.14-.33,1.67-.06,3-.46,4.01-1.21Z"/>
        <path class="cls-1" d="m139.86,122.87h-17.39c-.11,0-.2.09-.2.2v3.33c0,.11.09.2.2.2h6.23c.11,0,.2.09.2.2v12.69c0,.11.09.2.2.2h4.12c.11,0,.2-.09.2-.2v-12.69c0-.11.09-.2.2-.2h6.23c.11,0,.2-.09.2-.2v-3.33c0-.11-.09-.2-.2-.2Z"/>
        <path class="cls-1" d="m163.31,135.43c-.37-.36-.55-.89-.55-1.6v-10.76c0-.11-.09-.2-.2-.2h-4.1c-.11,0-.2.09-.2.2v11.13c0,.88.14,1.67.43,2.36.29.69.69,1.27,1.2,1.73.52.47,1.13.82,1.85,1.06.72.24,1.52.36,2.38.36h9.97c.11,0,.2-.09.2-.2v-3.33c0-.11-.09-.2-.2-.2h-9.21c-.69,0-1.22-.18-1.58-.54Z"/>
        <path class="cls-1" d="m176.91,123.07v3.33c0,.11.09.2.2.2h16.32c.14,0,.24-.14.19-.27l-1.33-3.33c-.03-.08-.1-.13-.19-.13h-14.99c-.11,0-.2.09-.2.2Z"/>
        <path class="cls-1" d="m181.63,133.17h11.15c.11,0,.2-.09.2-.2v-3.33c0-.11-.09-.2-.2-.2h-15.67c-.11,0-.2.09-.2.2v9.87c0,.11.09.2.2.2h14.99c.08,0,.16-.05.19-.13l1.33-3.33c.05-.13-.04-.27-.19-.27h-11.79c-.11,0-.2-.09-.2-.2v-2.4c0-.11.09-.2.2-.2Z"/>
        <path class="cls-1" d="m57.92,133.17h11.15c.11,0,.2-.09.2-.2v-3.33c0-.11-.09-.2-.2-.2h-15.67c-.11,0-.2.09-.2.2v9.87c0,.11.09.2.2.2h14.99c.08,0,.16-.05.19-.13l1.33-3.33c.05-.13-.04-.27-.19-.27h-11.79c-.11,0-.2-.09-.2-.2v-2.4c0-.11.09-.2.2-.2Z"/>
        <path class="cls-1" d="m53.2,123.07v3.33c0,.11.09.2.2.2h16.31c.14,0,.24-.14.19-.27l-1.33-3.33c-.03-.08-.1-.13-.19-.13h-14.99c-.11,0-.2.09-.2.2Z"/>
        <path class="cls-1" d="m212.77,132.15c-.32-.6-.74-1.1-1.25-1.5-.52-.4-1.12-.7-1.81-.91-.69-.21-1.43-.31-2.24-.31h-5.72c-.44-.05-.81-.19-1.12-.42-.3-.23-.45-.56-.45-.98,0-.51.2-.87.61-1.09.41-.22.89-.33,1.45-.33h10.09c.14,0,.24-.14.19-.27l-1.33-3.33c-.03-.08-.1-.13-.19-.13h-9.53c-.82,0-1.57.11-2.25.32-.68.21-1.27.52-1.78.92-.51.4-.92.9-1.24,1.5-.32.6-.53,1.28-.63,2.05v.71c.07.77.26,1.45.59,2.05.33.6.75,1.1,1.27,1.51.52.41,1.12.72,1.81.92.69.21,1.43.31,2.24.31h5.7c.44.07.82.21,1.13.42.31.21.47.53.47.96,0,.51-.21.87-.61,1.09-.41.22-.89.33-1.45.33h-10.25c-.08,0-.16.05-.19.13l-1.33,3.33c-.05.13.04.27.19.27h12.34c.8,0,1.55-.11,2.24-.32.69-.21,1.29-.52,1.79-.92.51-.4.92-.9,1.24-1.5.32-.6.53-1.28.63-2.05v-.71c-.08-.77-.28-1.45-.6-2.05Z"/>
      </g>
      <path class="cls-1" d="m104.24,144.14l4.13-4.38s.05-.09.05-.14v-21.05c0-.18-.22-.27-.34-.14l-4.13,4.39s-.05.09-.05.14v21.04c0,.18.22.27.34.14Z"/>
    </g>
  </g>
</svg>