<svg width="744" height="1132" viewBox="0 0 744 1132" fill="none" xmlns="http://www.w3.org/2000/svg">
    <rect x="203.2" y="654.1" class="st0" width="3.7" height="3" fill="#E9ABE1"/>
    <rect x="203.6" y="753.2" class="st0" width="6.7" height="6" fill="#E9ABE1"/>
    <rect x="202.9" y="785.9" class="st0" width="1.5" height="1.5" fill="#E9ABE1"/>
    <rect x="631.5" y="252" class="st0" width="2.2" height="1.5" fill="#E9ABE1"/>
    <rect x="624" y="252" class="st0" width="2.2" height="1.5" fill="#E9ABE1"/>
    <rect x="631.5" y="255.7" class="st0" width="2.2" height="1.5" fill="#E9ABE1"/>
    <rect x="624" y="255.7" class="st0" width="2.2" height="1.5" fill="#E9ABE1"/>
    <rect x="557.7" y="551" class="st0" width="5.2" height="5.2" fill="#E9ABE1"/>
    <rect x="560.7" y="562.9" class="st0" width="2.2" height="0.7" fill="#E9ABE1"/>
    <rect x="560.7" y="565.8" class="st0" width="2.2" height="0.7" fill="#E9ABE1"/>
    <rect x="619.5" y="649.2" class="st0" width="2.2" height="1.5" fill="#E9ABE1"/>
    <rect x="691.8" y="252" class="st0" width="2.2" height="1.5" fill="#E9ABE1"/>
    <rect x="562.2" y="649.2" class="st0" width="2.2" height="1.5" fill="#E9ABE1"/>
    <rect x="200.7" y="914.3" class="st0" width="2.2" height="1.5" fill="#E9ABE1"/>
    <rect x="143.3" y="914.3" class="st0" width="2.2" height="1.5" fill="#E9ABE1"/>
    <rect x="250.3" y="369.4" class="st0" width="2.2" height="1.5" fill="#E9ABE1"/>
    <rect x="82.8" y="369.4" class="st0" width="2.2" height="1.5" fill="#E9ABE1"/>
    <rect x="257.7" y="369.4" class="st0" width="2.2" height="1.5" fill="#E9ABE1"/>
    <rect x="75.3" y="365.7" class="st0" width="2.2" height="1.5" fill="#E9ABE1"/>
    <rect x="250.3" y="365.7" class="st0" width="2.2" height="1.5" fill="#E9ABE1"/>
    <rect x="82.8" y="365.7" class="st0" width="2.2" height="1.5" fill="#E9ABE1"/>
    <rect x="257.7" y="365.7" class="st0" width="2.2" height="1.5" fill="#E9ABE1"/>
    <rect x="133.4" y="336.6" class="st0" width="2.2" height="1.5" fill="#E9ABE1"/>
    <rect x="132.7" y="369.4" class="st0" width="2.2" height="1.5" fill="#E9ABE1"/>
    <rect x="308.3" y="73.8" class="st0" width="2.2" height="1.5" fill="#E9ABE1"/>
    <rect x="423" y="73.1" class="st0" width="2.2" height="1.5" fill="#E9ABE1"/>
    <rect x="190" y="369.4" class="st0" width="2.2" height="1.5" fill="#E9ABE1"/>
    <rect x="365.7" y="73.8" class="st0" width="2.2" height="1.5" fill="#E9ABE1"/>
    <rect x="480.3" y="73.1" class="st0" width="2.2" height="1.5" fill="#E9ABE1"/>
    <rect x="190.7" y="335.9" class="st0" width="2.2" height="1.5" fill="#E9ABE1"/>
    <rect x="252.1" y="285.7" class="st0" width="6.7" height="1.5" fill="#E9ABE1"/>
    <rect x="251.4" y="252.2" class="st0" width="6.7" height="1.5" fill="#E9ABE1"/>
    <rect x="630.9" y="913.9" class="st0" width="2.2" height="1.5" fill="#E9ABE1"/>
    <rect x="623.5" y="913.9" class="st0" width="2.2" height="1.5" fill="#E9ABE1"/>
    <rect x="630.9" y="910.2" class="st0" width="2.2" height="1.5" fill="#E9ABE1"/>
    <rect x="623.5" y="910.2" class="st0" width="2.2" height="1.5" fill="#E9ABE1"/>
    <rect x="522" y="570.3" class="st0" width="5.2" height="5.2" fill="#E9ABE1"/>
    <rect x="525" y="562.9" class="st0" width="2.2" height="0.7" fill="#E9ABE1"/>
    <rect x="525" y="559.9" class="st0" width="2.2" height="0.7" fill="#E9ABE1"/>
    <rect x="204" y="551.3" class="st0" width="5.2" height="5.2" fill="#E9ABE1"/>
    <rect x="204" y="563.2" class="st0" width="2.2" height="0.7" fill="#E9ABE1"/>
    <rect x="204" y="566.2" class="st0" width="2.2" height="0.7" fill="#E9ABE1"/>
    <rect x="239.7" y="570.7" class="st0" width="5.2" height="5.2" fill="#E9ABE1"/>
    <rect x="239.7" y="563.2" class="st0" width="2.2" height="0.7" fill="#E9ABE1"/>
    <rect x="239.7" y="560.3" class="st0" width="2.2" height="0.7" fill="#E9ABE1"/>
    <rect x="562.4" y="475.8" class="st0" width="2.2" height="1.5" fill="#E9ABE1"/>
    <rect x="690.1" y="913.9" class="st0" width="2.2" height="1.5" fill="#E9ABE1"/>
    <rect x="505.1" y="475.8" class="st0" width="2.2" height="1.5" fill="#E9ABE1"/>
    <rect x="701.4" y="737.8" class="st0" width="2.2" height="1.5" fill="#E9ABE1"/>
</svg>
