<svg width="374" height="1112" viewBox="0 0 374 1112" fill="none" xmlns="http://www.w3.org/2000/svg">
    <rect x="28.4" y="244.9" class="st0" width="1.1" height="1.7" fill="#E9ABE1"/>
    <rect x="28.4" y="250.6" class="st0" width="1.1" height="1.7" fill="#E9ABE1"/>
    <rect x="31.2" y="244.9" class="st0" width="1.1" height="1.7" fill="#E9ABE1"/>
    <rect x="31.2" y="250.6" class="st0" width="1.1" height="1.7" fill="#E9ABE1"/>
    <rect x="53.3" y="205.8" class="st0" width="1.1" height="1.7" fill="#E9ABE1"/>
    <rect x="53" y="296.8" class="st0" width="4" height="4" fill="#E9ABE1"/>
    <rect x="62" y="296.8" class="st0" width="0.6" height="1.7" fill="#E9ABE1"/>
    <rect x="64.3" y="296.8" class="st0" width="0.6" height="1.7" fill="#E9ABE1"/>
    <rect x="28.4" y="205.8" class="st0" width="1.1" height="1.7" fill="#E9ABE1"/>
    <rect x="210" y="95.1" class="st0" width="1.1" height="1.7" fill="#E9ABE1"/>
    <rect x="253.1" y="95.1" class="st0" width="1.1" height="1.7" fill="#E9ABE1"/>
    <rect x="166.1" y="95.1" class="st0" width="1.1" height="1.7" fill="#E9ABE1"/>
    <rect x="253.3" y="410.9" class="st0" width="1.1" height="1.7" fill="#E9ABE1"/>
    <rect x="252.7" y="367.4" class="st0" width="1.1" height="1.7" fill="#E9ABE1"/>
    <rect x="53.8" y="249.4" class="st0" width="1.1" height="1.7" fill="#E9ABE1"/>
    <rect x="345.4" y="205.9" class="st0" width="1.1" height="1.7" fill="#E9ABE1"/>
    <rect x="345.4" y="211.5" class="st0" width="1.1" height="1.7" fill="#E9ABE1"/>
    <rect x="342.6" y="205.9" class="st0" width="1.1" height="1.7" fill="#E9ABE1"/>
    <rect x="342.6" y="211.5" class="st0" width="1.1" height="1.7" fill="#E9ABE1"/>
    <rect x="320" y="205.3" class="st0" width="1.1" height="1.7" fill="#E9ABE1"/>
    <rect x="67.7" y="323.9" class="st0" width="4" height="4" fill="#E9ABE1"/>
    <rect x="62" y="323.9" class="st0" width="0.6" height="1.7" fill="#E9ABE1"/>
    <rect x="59.8" y="323.9" class="st0" width="0.6" height="1.7" fill="#E9ABE1"/>
    <rect x="317.1" y="296.8" class="st0" width="4" height="4" fill="#E9ABE1"/>
    <rect x="311.5" y="296.8" class="st0" width="0.6" height="1.7" fill="#E9ABE1"/>
    <rect x="309.2" y="296.8" class="st0" width="0.6" height="1.7" fill="#E9ABE1"/>
    <rect x="302.4" y="323.9" class="st0" width="4" height="4" fill="#E9ABE1"/>
    <rect x="311.5" y="323.9" class="st0" width="0.6" height="1.7" fill="#E9ABE1"/>
    <rect x="313.7" y="323.9" class="st0" width="0.6" height="1.7" fill="#E9ABE1"/>
    <rect x="121.1" y="367.4" class="st0" width="1.1" height="1.7" fill="#E9ABE1"/>
    <rect x="121.1" y="410.9" class="st0" width="1.1" height="1.7" fill="#E9ABE1"/>
    <rect x="295.7" y="204.7" class="st0" width="1.1" height="5.1" fill="#E9ABE1"/>
    <rect x="270.2" y="204.2" class="st0" width="1.1" height="5.1" fill="#E9ABE1"/>
</svg>
